<svg xmlns="http://www.w3.org/2000/svg" width="20.316" height="20.359" viewBox="0 0 20.316 20.359">
    <g id="prefix__phone-4" transform="translate(-.539)">
        <g id="prefix__Group_1974" data-name="Group 1974" transform="translate(.539)">
            <path id="prefix__Path_16865" d="M20.323 14.942L17.482 12.1a1.89 1.89 0 0 0-3.146.71 1.934 1.934 0 0 1-2.236 1.218 8.761 8.761 0 0 1-5.273-5.276 1.839 1.839 0 0 1 1.218-2.233 1.89 1.89 0 0 0 .71-3.146L5.914.533a2.027 2.027 0 0 0-2.74 0L1.246 2.461c-1.928 2.029.2 7.407 4.972 12.176s10.147 7 12.176 4.972l1.928-1.928a2.027 2.027 0 0 0 .001-2.739z" data-name="Path 16865" transform="translate(-.539)" style="fill:#ffa700"/>
        </g>
    </g>
</svg>
